<?xml version="1.0" encoding="UTF-8" standalone="no"?>
<!-- Generator: Adobe Illustrator 19.0.0, SVG Export Plug-In . SVG Version: 6.00 Build 0)  -->

<svg
   xmlns:dc="http://purl.org/dc/elements/1.1/"
   xmlns:cc="http://creativecommons.org/ns#"
   xmlns:rdf="http://www.w3.org/1999/02/22-rdf-syntax-ns#"
   xmlns:svg="http://www.w3.org/2000/svg"
   xmlns="http://www.w3.org/2000/svg"
   xmlns:sodipodi="http://sodipodi.sourceforge.net/DTD/sodipodi-0.dtd"
   xmlns:inkscape="http://www.inkscape.org/namespaces/inkscape"
   version="1.1"
   id="Layer_1"
   x="0px"
   y="0px"
   viewBox="0 0 440 440"
   style="enable-background:new 0 0 440 440;"
   xml:space="preserve"
   sodipodi:docname="open-folder.svg"
   inkscape:version="0.92.5 (2060ec1f9f, 2020-04-08)"><metadata
   id="metadata45"><rdf:RDF><cc:Work
       rdf:about=""><dc:format>image/svg+xml</dc:format><dc:type
         rdf:resource="http://purl.org/dc/dcmitype/StillImage" /></cc:Work></rdf:RDF></metadata><defs
   id="defs43">
	
	
	
</defs><sodipodi:namedview
   pagecolor="#ffffff"
   bordercolor="#666666"
   borderopacity="1"
   objecttolerance="10"
   gridtolerance="10"
   guidetolerance="10"
   inkscape:pageopacity="0"
   inkscape:pageshadow="2"
   inkscape:window-width="3200"
   inkscape:window-height="1536"
   id="namedview41"
   showgrid="false"
   inkscape:zoom="1.0727273"
   inkscape:cx="329.71033"
   inkscape:cy="58.124554"
   inkscape:window-x="0"
   inkscape:window-y="54"
   inkscape:window-maximized="1"
   inkscape:current-layer="Layer_1" />
<path
   inkscape:connector-curvature="0"
   id="path2"
   d="M 420,78.072 V 60 C 420,43.5 406.5,30 390,30 H 240 v 40 h 150 c 10.925,0 21.167,2.949 30,8.072 z" /><path
   inkscape:connector-curvature="0"
   id="path4"
   d="m 340.57,211.141 c 29.914,0 57.487,10.205 79.43,27.311 V 130 c 0,-16.5 -13.5,-30 -30,-30 H 210 V 30 C 210,13.5 196.5,0 180,0 H 30 C 13.5,0 0,13.5 0,30 v 310.57 h 211.141 c 0,-71.368 58.061,-129.429 129.429,-129.429 z" /><path
   inkscape:connector-curvature="0"
   id="path6"
   d="m 241.1405,340.5705 c 0,-54.825 44.604,-99.43 99.43,-99.43 54.826,0 99.429,44.605 99.429,99.43 0,54.826 -44.604,99.43 -99.43,99.43 -54.826,0 -99.429,-44.604 -99.429,-99.43 z m 94.29,40.09 19.809,19.57 46.83,-44.659 6.64195,-7.27651 2.39155,-3.69308 0.96904,-4.03041 -0.59032,-4.00646 -1.70818,-3.06049 -7.70404,-7.93305 -46.83,-44.65859 -19.809,19.56982 25.944,25.48618 -35.805,-0.39741 h -46.5 v 30 h 46.5 l 35.805,0.19349 z"
   sodipodi:nodetypes="ssssscccccccccccccccccc" />
<g
   id="g10">
</g>
<g
   id="g12">
</g>
<g
   id="g14">
</g>
<g
   id="g16">
</g>
<g
   id="g18">
</g>
<g
   id="g20">
</g>
<g
   id="g22">
</g>
<g
   id="g24">
</g>
<g
   id="g26">
</g>
<g
   id="g28">
</g>
<g
   id="g30">
</g>
<g
   id="g32">
</g>
<g
   id="g34">
</g>
<g
   id="g36">
</g>
<g
   id="g38">
</g>
</svg>