<?xml version="1.0" encoding="UTF-8" standalone="no"?>
<svg
   xmlns:dc="http://purl.org/dc/elements/1.1/"
   xmlns:cc="http://creativecommons.org/ns#"
   xmlns:rdf="http://www.w3.org/1999/02/22-rdf-syntax-ns#"
   xmlns:svg="http://www.w3.org/2000/svg"
   xmlns="http://www.w3.org/2000/svg"
   xmlns:sodipodi="http://sodipodi.sourceforge.net/DTD/sodipodi-0.dtd"
   xmlns:inkscape="http://www.inkscape.org/namespaces/inkscape"
   width="93.3125"
   height="103.76855"
   version="1.1"
   id="svg10"
   sodipodi:docname="system-shutdown-panel-svgrepo-com.svg"
   inkscape:version="0.92.5 (2060ec1f9f, 2020-04-08)">
  <defs
     id="defs14" />
  <sodipodi:namedview
     pagecolor="#ffffff"
     bordercolor="#666666"
     borderopacity="1"
     objecttolerance="10"
     gridtolerance="10"
     guidetolerance="10"
     inkscape:pageopacity="0"
     inkscape:pageshadow="2"
     inkscape:window-width="3200"
     inkscape:window-height="1536"
     id="namedview12"
     showgrid="false"
     inkscape:zoom="5.2149125"
     inkscape:cx="36.220742"
     inkscape:cy="81.210453"
     inkscape:window-x="0"
     inkscape:window-y="54"
     inkscape:window-maximized="1"
     inkscape:current-layer="svg10" />
  <title
     id="title2">Clarity Icon</title>
  <desc
     id="desc4">This is shape (source) for Clarity vector icon theme for gtk</desc>
  <metadata
     id="metadata6">
    <rdf:RDF>
      <cc:Work
         rdf:about="">
        <dc:title>Clarity Icon</dc:title>
        <dc:description>This is shape (source) for Clarity vector icon theme for gtk</dc:description>
        <dc:creator>
          <cc:Agent>
            <dc:title>Jakub Jankiewicz</dc:title>
          </cc:Agent>
        </dc:creator>
        <dc:rights>
          <cc:Agent>
            <dc:title>Jakub Jankiewicz</dc:title>
          </cc:Agent>
        </dc:rights>
        <dc:date>2010</dc:date>
        <dc:format>image/svg+xml</dc:format>
        <dc:type
           rdf:resource="http://purl.org/dc/dcmitype/StillImage" />
        <cc:license
           rdf:resource="http://creativecommons.org/licenses/by-sa/3.0/" />
      </cc:Work>
    </rdf:RDF>
  </metadata>
  <path
     d="m 43.056113,0 c -3.077848,0 -5.587712,2.484756 -5.5625,5.5625 l 0.287637,35.112306 c 0.02521,3.077745 2.484652,5.5625 5.5625,5.5625 h 5.96875 c 3.077848,0 5.556463,-2.484755 5.53125,-5.5625 L 54.556113,5.5625 C 54.530903,2.484756 52.102711,0 49.024863,0 Z M 59.53125,12.299806 v 30.3185 c -0.0767,5.043411 -5.665136,7.945328 -10.115778,8.005 -4.810735,-0.08602 -0.438606,0.06507 -6.412793,0 -4.170731,-0.0029 -9.745299,-2.948896 -9.831338,-8.005 L 32.8125,12.549806 C 13.7908,18.441223 0,36.187868 0,57.143556 c 0,25.766671 20.88959,46.625004 46.65625,46.625004 25.76667,0 46.65625,-20.858333 46.65625,-46.625004 0,-21.298684 -14.2775,-39.252235 -33.78125,-44.84375 z"
     id="path8"
     inkscape:connector-curvature="0"
     sodipodi:nodetypes="sssssssssccccccsssc" />
</svg>
